# xmcd
# 
# Track frame offsets:
#     150
#     18581
#     32983
#     52873
#     70140
#     85221
#     104054
#     124674
#     146697
#     171349
#     187767
#     200502
# 
# Disc length: 2896
# 
# Revision: 1
# Processed by: cddbd v1.5.2PL0 Copyright (c) Steve Scherf et al.
# Submitted via: fre:ac v1.0.27
# 
DISCID=a80b4e0c
DTITLE=Rob Stone - Gotta Keep Rollin
DYEAR=2014
DGENRE=Blues
TTITLE0=Wait Baby
TTITLE1=Wonderful Time
TTITLE2=Lucky 13
TTITLE3=Anything Can Happen
TTITLE4=She Belongs To Me
TTITLE5=Move Baby Move
TTITLE6=Strollin' With Sasquatch
TTITLE7=Wired And Tired
TTITLE8=Cold Winter Day
TTITLE9=It's Easy When You Know How
TTITLE10=Blues Keep Rollin' On
TTITLE11=Not No Mo'
EXTD=
EXTT0=
EXTT1=
EXTT2=
EXTT3=
EXTT4=
EXTT5=
EXTT6=
EXTT7=
EXTT8=
EXTT9=
EXTT10=
EXTT11=
PLAYORDER=
